<?xml version="1.0" encoding="UTF-8"?>
<svg width="432px" height="639px" viewBox="0 0 432 639" version="1.1" xmlns="http://www.w3.org/2000/svg" xmlns:xlink="http://www.w3.org/1999/xlink">
    <!-- Generator: Sketch 52.6 (67491) - http://www.bohemiancoding.com/sketch -->
    <title>Group 2</title>
    <desc>Created with Sketch.</desc>
    <g id="Page-1" stroke="none" stroke-width="1" fill="none" fill-rule="evenodd">
        <g id="Group-2" transform="translate(5.000000, 3.000000)">
            <path d="M191.227867,155.811459 C192.173889,153.779567 193.782124,149.46799 194.728146,146.246697 C201.302993,124.391464 203.951852,118.394903 210.574,110.812476 C211.898429,109.276167 212.986354,107.938091 212.986354,107.838974 C212.986354,107.739858 209.438774,108.037208 205.087077,108.532791 C197.897316,109.375283 193.403716,109.375283 189.714234,108.631908 L188.389804,108.334558 L190.376448,105.311498 C194.538941,98.8689127 198.228424,94.1113109 203.715347,88.2634253 L209.344172,82.167748 L206.033098,82.167748 C201.350294,82.167748 191.464373,84.2987571 184.227311,86.8757914 C183.801601,87.0244665 183.990806,86.4297663 184.65302,85.2403658 C192.173889,72.2065192 194.444339,69.2825764 201.302993,63.9302744 C206.1277,60.1638396 208.729259,57.3390135 208.729259,55.9513797 C208.729259,53.7212538 205.039776,51.5406863 198.796037,50.2026108 L196.194478,49.6574689 L199.032542,48.12116 C200.593477,47.278668 203.951852,45.6928008 206.458808,44.5529586 C214.452687,40.9847573 218.331373,38.1599312 220.081512,34.5917299 C220.601824,33.4518878 220.980232,31.2217619 221.169437,28.1491441 C221.500544,22.2517001 223.061479,17.0976315 227.460477,7.23551942 L230.72425,1.70530257e-13 L231.102659,4.26201829 C231.575669,9.9612288 233.136604,17.9401235 237.109893,35.0873134 C243.590138,63.1868991 244.914567,72.2065192 244.914567,88.362542 C244.914567,100.603455 244.441557,104.518565 242.076504,113.141718 C236.258474,134.253576 219.5139,150.062691 194.870049,157.793793 C192.741501,158.438052 190.660255,159.131869 190.187244,159.280544 C189.619631,159.429219 189.856137,158.586727 191.227867,155.811459 Z" id="Path" stroke="#FEFEFE" stroke-width="5" transform="translate(214.457284, 79.648446) scale(-1, 1) rotate(-180.000000) translate(-214.457284, -79.648446) "></path>
            <path d="M358.604293,161.859431 C351.083425,161.661198 343.799062,161.165614 340.866396,160.719589 C319.675523,157.300063 302.647142,144.067983 283.632117,116.216189 C281.787376,113.490479 278.712807,108.237294 276.820765,104.520418 C274.928722,100.753983 270.766229,93.1715549 267.597059,87.6210195 C261.731727,77.5111156 258.940965,71.7623468 256.859719,65.7657862 C255.535289,61.801118 253.78515,55.2594155 254.021655,55.0116237 C254.116257,54.912507 255.204181,55.4576489 256.48131,56.2505825 C257.758439,57.0435162 262.866953,59.8187839 267.786263,62.4453766 C277.814087,67.847237 283.206407,71.7127884 286.091772,75.727015 C287.132395,77.2137655 288.031115,78.4527243 288.078416,78.5022827 C288.173018,78.6013994 289.686652,78.1058159 291.484092,77.4615573 C295.741188,75.9252484 302.789045,72.4561637 307.47185,69.5322209 C309.505795,68.2437038 311.303235,67.3020951 311.397838,67.4507701 C311.728945,67.7481203 308.323269,74.6367312 306.194721,77.8580241 C305.154098,79.4934497 302.836346,82.5165092 301.038906,84.6475184 L297.822434,88.5130698 L299.809079,89.7520286 C307.235345,94.311397 315.276524,96.1946144 329.703347,96.7893147 C338.879752,97.1857815 338.879752,97.1857815 329.703347,100.357516 C323.412306,102.587642 315.08732,104.520418 308.134065,105.412468 C305.579808,105.759376 303.498561,106.205402 303.498561,106.453193 C303.498561,107.097452 308.134065,110.566537 310.877526,112.003729 C314.425105,113.886946 320.43234,115.522372 331.689991,117.752498 C342.616535,119.933065 345.549201,120.577324 345.833007,120.874674 C345.97491,120.973791 345.691104,121.865841 345.218094,122.80745 C344.366675,124.59155 340.535289,127.31726 337.555322,128.258868 C334.007743,129.349152 328.710025,130.687228 326.628778,130.984578 C322.750091,131.52972 322.750091,131.82707 326.817982,135.890855 C332.494109,141.590065 337.602623,144.514008 352.928166,150.956594 C357.610971,152.938928 363.097893,155.416845 365.084538,156.457571 C368.537515,158.241671 373.977136,161.760314 373.977136,162.20634 C373.977136,162.305456 373.409524,162.355015 372.700008,162.305456 C371.943191,162.255898 365.65215,162.057665 358.604293,161.859431 Z" id="Path" stroke="#FFFFFF" stroke-width="10" transform="translate(313.988568, 108.662449) scale(-1, 1) rotate(-180.000000) translate(-313.988568, -108.662449) "></path>
            <path d="M97.8486366,185.221215 C83.1853088,183.387556 69.1368948,178.927304 54.2370618,171.443993 C50.263773,169.4121 47,167.677558 47,167.578441 C47,167.479325 48.5609349,166.983741 50.4529772,166.488158 C64.5959933,162.969515 94.1591541,155.089737 98.7946578,153.602986 C108.444073,150.530368 119.796327,146.169233 119.323317,145.723208 C119.228715,145.624091 114.687813,142.749707 109.295492,139.330181 L99.4568726,133.135387 L103.619366,132.838036 C105.889816,132.689361 112.133556,132.292895 117.478575,132.045103 C129.871452,131.400844 133.135225,131.153052 139.237062,130.31056 C145.575403,129.41851 150.116305,128.030876 150.116305,127.039709 C150.116305,126.445009 144.629382,122.430782 139.899277,119.605956 C134.790762,116.533339 126.560378,112.56867 118.897607,109.496053 C115.633834,108.207535 112.464663,106.968577 111.84975,106.720785 C111.234836,106.472993 110.809126,106.175643 110.903728,106.026968 C111.42404,105.531384 128.40512,102.260533 134.506956,101.517158 C144.298275,100.377316 156.974958,100.773783 163.833612,102.458767 C166.577073,103.152583 169.604341,104.094192 170.597663,104.490659 C171.543684,104.936684 172.347802,105.085359 172.347802,104.887126 C172.347802,103.697725 168.374513,98.1967482 165.820256,95.8675057 C164.21202,94.3807551 162.982193,93.1417963 163.029494,93.0426796 C163.171397,92.9435629 170.219254,94.4303135 177.314413,96.0657391 C181.1931,96.9577894 186.443517,97.0569061 189.092376,96.3135308 C190.889816,95.768389 191.883139,94.925897 194.058987,91.9028375 C196.518642,88.4833112 201.296049,86.5009771 212.790206,83.9735011 C216.716194,83.1310091 220.925988,82.1398421 222.203116,81.7433753 C223.480245,81.3469085 224.662771,81 224.804674,81 C225.324986,81 224.804674,90.1682952 224.095159,94.0338466 C223.149137,99.3365903 221.91931,102.012741 216.810796,110.041194 C196.755147,141.609865 175.753478,162.672164 152.244853,174.665286 C141.271007,180.314938 130.344463,183.784023 119.607123,185.07254 C115.681135,185.518565 101.065109,185.66724 97.8486366,185.221215 Z" id="Path" stroke="#FFFEFE" stroke-width="2" transform="translate(136.007845, 133.245261) scale(-1, 1) rotate(-180.000000) translate(-136.007845, -133.245261) "></path>
            <path d="M333.175849,222.446963 C322.816917,221.604471 311.32276,219.671695 296.99054,216.351286 C294.152476,215.657469 289.658876,214.864535 287.057318,214.567185 C279.205342,213.724693 271.779076,211.445009 254.703395,204.853748 L246,201.434222 L248.081247,201.037755 C249.216472,200.839522 257.63606,200.492613 266.717863,200.244821 C285.070673,199.798796 285.685587,199.69968 286.820812,196.627062 C288.807457,191.423435 292.355036,185.327757 293.44296,185.327757 C293.632165,185.327757 293.963272,186.071133 294.105175,187.012741 C294.530885,189.292426 296.375626,191.27476 298.031163,191.27476 C301.342237,191.225201 305.315526,188.301259 315.958264,178.141796 C322.202003,172.095677 329.249861,166 329.959377,166 C330.10128,166 330.479688,169.023059 330.763495,172.739936 C331.709516,183.345423 332.939343,186.318924 336.581525,186.318924 C340.081803,186.318924 345.947134,182.354256 358.481914,171.500977 L363.685031,166.991167 L364.772955,168.874384 C366.8069,172.393027 367.469115,175.663879 367.469115,182.502931 C367.469115,185.972016 367.469115,188.796842 367.516416,188.796842 C367.563717,188.796842 369.597663,187.805675 372.104619,186.616275 C383.598776,181.016181 392.917084,177.695771 402.803005,175.663879 C413.540345,173.483311 417.986644,172.393027 421.108514,171.154069 C422.764051,170.50981 424.277685,169.964668 424.51419,169.964668 C425.271007,169.964668 424.987201,175.168295 423.993879,179.182522 C419.074569,199.650121 397.316082,215.905261 367.942126,220.960213 C356.920979,222.892988 345.379521,223.388572 333.175849,222.446963 Z" id="Path" stroke="#FFFFFF" stroke-width="3" transform="translate(335.472244, 194.454825) scale(-1, 1) rotate(-180.000000) translate(-335.472244, -194.454825) "></path>
            <path d="M82.9525907,259.969515 C82.0538706,259.870398 79.2631082,259.523489 76.8034532,259.275698 C62.2347276,257.590714 48.3282167,252.833112 38.2530915,245.994059 C22.2180331,235.190338 12.2848111,219.579458 1.07446047,187.762995 C-0.297270194,183.897444 -0.297270194,183.847886 0.743353067,184.541702 C17.4879274,195.940124 39.5775211,208.527945 53.8624404,214.821856 C60.10618,217.547565 71.6003369,221.760025 71.8841433,221.462675 C71.9787454,221.363558 70.9854232,214.177597 69.7082946,205.504885 C68.383865,196.832174 67.4378439,189.646213 67.532446,189.497538 C67.6743492,189.398421 69.9447999,191.281638 72.6409602,193.709998 C85.648751,205.504885 98.4200364,216.259048 104.332669,220.42195 C107.785646,222.850309 108.495162,223.147659 110.056097,222.949425 C111.049419,222.80075 112.373848,222.354725 112.988762,221.9087 C115.070009,220.471508 114.975406,219.083874 112.373848,213.285547 C111.049419,210.361604 109.204677,205.901352 108.305957,203.373876 C106.603119,198.76495 100.406681,178 100.737788,178 C100.926992,178 121.928662,193.214414 125.192435,195.74189 C133.848528,202.481826 139.761161,208.67662 142.693826,214.07848 C144.254761,217.002423 144.822374,217.39889 146.619814,216.952865 C148.653759,216.407723 149.788985,212.88908 149.788985,207.140311 L149.836286,202.333151 L151.586425,203.819902 C153.998779,205.802236 156.978745,210.064254 160.715529,216.80419 L163.837399,222.453842 L166.107849,222.057375 C169.891934,221.413117 178.689931,221.561792 182.757822,222.404284 C192.218033,224.287501 204.043297,230.33362 212.084477,237.420464 L213.692713,238.857657 L211.611467,239.105448 C210.42894,239.254123 207.448974,239.65059 204.989319,239.898382 C199.265891,240.542641 195.765612,241.533808 191.035507,243.763933 C186.400003,245.894943 183.514639,246.786993 173.108406,249.314469 C154.04608,253.923396 137.443409,256.946455 119.61091,259.077464 C113.367171,259.771281 86.8785784,260.465098 82.9525907,259.969515 Z" id="Path" stroke="#FFFDFD" stroke-width="10" transform="translate(106.846357, 219.068644) scale(-1, 1) rotate(-180.000000) translate(-106.846357, -219.068644) "></path>
            <path d="M235.846251,632.039995 C232.866285,629.512519 221.324827,621.533624 198.478416,606.31921 C173.929167,589.964954 163.712139,582.927668 152.832896,574.948773 C101.13284,536.937517 68.9208201,500.016544 52.318149,459.725604 C50.3788056,455.017561 49.6219887,453.629927 48.8178707,453.53081 C47.9191506,453.382135 47.8245485,453.035227 47.8245485,450.507751 C47.8245485,448.872325 47.398839,446.344849 46.8312263,444.709423 C45.6013988,440.992547 43.4255502,432.46851 42.479529,427.66135 C33.8707366,384.6447 41.2024005,339.24925 64.8529291,289.145756 C70.8128624,276.508376 76.3943871,265.902889 82.4016214,255.842543 C84.3409648,252.62125 93.9903805,239.934312 109.315923,220.45788 C122.465617,203.756715 133.439462,189.78126 133.675968,189.434351 C134.101677,188.839651 140.913029,188.839651 178.611972,189.533468 C248.901343,190.722868 276.903569,191.26801 277.092773,191.466244 C277.187375,191.515802 272.504571,193.944161 266.733842,196.818546 C179.747197,239.785637 180.882423,239.240495 173.077748,244.642355 C146.636457,262.929387 124.452261,283.991687 109.17402,305.301779 C97.2068524,322.052502 87.841243,341.974959 83.8206531,359.171707 C75.5429681,394.655488 80.6041812,428.900309 100.092217,469.290366 C108.653708,487.032256 118.492328,502.395345 131.263614,518.154901 C139.020987,527.719663 159.029334,548.435055 177.429446,565.929153 C196.444471,584.06751 213.520152,601.759842 222.034343,612.216654 C228.467286,620.096432 238.258605,633.328512 237.643692,633.328512 C237.454487,633.278954 236.650369,632.733812 235.846251,632.039995 Z" id="Path" stroke="#447BD5" stroke-width="5" fill="#FFFFFF" transform="translate(158.047091, 411.164256) scale(-1, 1) rotate(-180.000000) translate(-158.047091, -411.164256) "></path>
            <path d="M240.022235,410.628926 C243.427911,401.014605 250.617672,372.766345 251.090683,367.067134 C251.563693,361.268807 249.151339,352.893445 244.326631,343.477358 C243.191406,341.197674 242.292686,339.364015 242.387288,339.364015 C242.48189,339.364015 245.17805,340.801207 248.347221,342.585308 C251.563693,344.369409 254.307154,345.757043 254.401757,345.608368 C254.54366,345.459693 252.935424,332.376288 250.806876,316.517615 C248.678329,300.658942 247.022792,287.575537 247.164695,287.47642 C247.448501,287.17907 250.712274,289.508313 253.597639,292.035789 C259.321067,296.991624 266.416225,307.002411 271.808546,317.707015 C273.274878,320.630958 274.599308,323.009759 274.69391,323.009759 C275.734533,323.009759 277.768479,321.225658 278.477995,319.689349 C279.802424,316.914082 279.707822,304.425377 278.241489,295.00929 C276.869759,286.039228 274.930415,271.270839 275.11962,271.072606 C275.450727,270.725697 280.228134,273.005382 282.73509,274.739924 C284.248724,275.780649 287.985507,279.200176 291.012775,282.223235 C294.040043,285.295853 296.641601,287.823329 296.783504,287.823329 C297.398418,287.823329 297.634923,283.363077 297.114611,280.389576 C296.830805,278.605475 295.364472,272.262006 293.803537,266.265446 C290.728969,254.321883 289.357238,247.730622 288.836926,242.576553 C288.505819,239.454377 288.55312,239.256144 289.357238,239.553494 C290.918173,240.148194 292.999419,241.833178 297.587622,246.194313 C304.871985,253.132482 306.764027,254.321883 308.183059,252.884691 C309.365585,251.596173 309.12908,243.914629 307.520844,230.979899 C306.101812,220.12662 305.203092,209.521132 305.770705,210.016716 C306.196414,210.462741 317.974378,227.411698 321.758462,233.06135 C337.651617,256.898917 341.104595,274.393015 334.435146,297.388091 C328.238707,318.648624 322.751784,328.312503 306.669425,345.905718 C303.121846,349.870386 297.114611,356.511205 293.377828,360.723665 C280.701144,374.847795 266.747333,388.377226 250.050059,402.550914 C247.211996,404.979274 243.711718,407.952775 242.292686,409.241292 C240.873654,410.480251 239.833031,411.074951 240.022235,410.628926 Z" id="Path" stroke="#FFFFFF" stroke-width="5" transform="translate(288.826203, 310.388226) scale(-1, 1) rotate(-180.000000) translate(-288.826203, -310.388226) "></path>
            <text id="hi" fill="#FFFFFF" font-family="BradleyHandITCTT-Bold, Bradley Hand" font-size="203" font-style="expanded" font-weight="bold">
                <tspan x="107" y="502">hi</tspan>
            </text>
            <g id="312154" transform="translate(203.000000, 411.000000)"></g>
        </g>
    </g>
</svg>