<?xml version="1.0" encoding="UTF-8"?>
<svg width="187px" height="54px" viewBox="0 0 187 54" version="1.1" xmlns="http://www.w3.org/2000/svg" xmlns:xlink="http://www.w3.org/1999/xlink">
    <!-- Generator: Sketch 58 (84663) - https://sketch.com -->
    <title>Group</title>
    <desc>Created with Sketch.</desc>
    <defs>
        <linearGradient x1="100%" y1="50%" x2="0%" y2="50%" id="linearGradient-1">
            <stop stop-color="#3CADEC" offset="0%"></stop>
            <stop stop-color="#FFFFFF" offset="100%"></stop>
        </linearGradient>
    </defs>
    <g id="Page-1" stroke="none" stroke-width="1" fill="none" fill-rule="evenodd">
        <g id="Group" transform="translate(4.000000, 0.000000)">
            <circle id="Oval" stroke="#979797" stroke-width="0.5" fill="#3CADEC" cx="23.65" cy="19.95" r="19.7"></circle>
            <text id="BREAKING-NEWS" font-family="AppleGothic" font-size="20" font-weight="normal">
                <tspan x="5.4" y="28.1" fill="#FFFFFF">BREAKING </tspan>
                <tspan x="110.14" y="28.1" fill="#73BDF7">NEWS</tspan>
            </text>
            <path id="Path" d="M179.798499,13.6178701 L179.99194,13.6877716 L180.181703,13.767117 C182.111266,14.6305638 183.062012,16.8268928 182.303848,18.773544 C181.565751,20.6686708 179.474606,21.6426567 177.514204,21.0755637 C174.91508,26.50035 170.967321,29.912606 165.689716,31.2847852 C160.578694,32.613653 155.857476,32.8348945 142.225048,32.5782283 L142.225048,32.5782283 L137.714458,32.4844961 C133.245531,32.3873279 130.189176,32.3363904 127.127572,32.320857 L127.127572,32.320857 L124.42143,32.3149635 C122.205503,32.3101141 119.858695,32.2786209 117.210885,32.2211006 L117.210885,32.2211006 L114.973877,32.1682433 L102.546606,31.804378 C88.0453095,31.3923574 80.1370084,31.3936804 70.862672,31.9732667 L70.862672,31.9732667 L69.5685244,32.0584222 C62.2677199,32.5632532 55.5192942,33.4484254 49.144964,34.7914073 C39.775924,36.7653326 25.7594222,41.0948248 7.10240954,47.778953 L7.10240954,47.778953 L3.87673723,48.9423391 C4.37986751,50.9095212 3.31880009,52.9760535 1.37083669,53.6866724 C-0.704520266,54.4437646 -3.00067399,53.3750999 -3.75776619,51.2997429 C-4.51485839,49.224386 -3.44619366,46.9282323 -1.37083669,46.1711401 C0.577948597,45.4602213 2.72142005,46.3591523 3.60247128,48.1897736 C23.3007472,41.0518068 38.1203734,36.3905043 48.0696968,34.2045582 L48.0696968,34.2045582 L48.980036,34.0085927 C55.7698362,32.578077 62.9764294,31.6645455 70.8127745,31.1748244 C79.6358325,30.62344 87.2191472,30.5936805 100.363817,30.9439113 L100.363817,30.9439113 L115.754794,31.3873749 C118.513096,31.4542293 120.939323,31.4952016 123.203189,31.5096913 L123.203189,31.5096913 L125.449344,31.5158305 C127.857193,31.5181651 130.107062,31.5404911 132.853879,31.587798 L132.853879,31.587798 L141.19243,31.7580497 C154.998269,32.0326457 159.969577,31.8611928 164.903733,30.6578838 L164.903733,30.6578838 L165.488409,30.5105273 C170.639286,29.1712973 174.45461,25.8069647 176.953706,20.3885533 L176.769442,20.7795969 C174.976441,19.8573929 174.118057,17.747676 174.849277,15.870206 C175.607441,13.9235549 177.793226,12.9488132 179.798499,13.6178701 Z M175.594734,16.1605398 C174.990619,17.7116573 175.759876,19.4730307 177.32325,20.157495 C177.377754,20.1569438 177.432357,20.1688227 177.484462,20.1928548 C177.519914,20.2092059 177.551837,20.2300889 177.57986,20.2544984 L177.451519,20.2105213 C179.100651,20.8528099 180.937976,20.076179 181.558391,18.4832102 C182.156648,16.9471331 181.408038,15.2048577 179.875128,14.5064682 L179.701606,14.4332287 L179.524257,14.3698142 C177.922789,13.847455 176.192991,14.6244628 175.594734,16.1605398 Z" fill="url(#linearGradient-1)" fill-rule="nonzero"></path>
        </g>
    </g>
</svg>