<?xml version="1.0" encoding="UTF-8"?>
<svg width="425px" height="637px" viewBox="0 0 425 637" version="1.1" xmlns="http://www.w3.org/2000/svg" xmlns:xlink="http://www.w3.org/1999/xlink">
    <!-- Generator: Sketch 52.6 (67491) - http://www.bohemiancoding.com/sketch -->
    <title>Group</title>
    <desc>Created with Sketch.</desc>
    <g id="Page-1" stroke="none" stroke-width="1" fill="none" fill-rule="evenodd">
        <g id="Group">
            <path d="M191.285476,155.844669 C192.231497,153.812777 193.839733,149.5012 194.785754,146.279907 C201.360601,124.424674 204.00946,118.428113 210.631608,110.845685 C211.956038,109.309376 213.043962,107.971301 213.043962,107.872184 C213.043962,107.773068 209.496383,108.070418 205.144686,108.566001 C197.954925,109.408493 193.461324,109.408493 189.771842,108.665118 L188.447412,108.367768 L190.434057,105.344708 C194.59655,98.9021225 198.286032,94.1445207 203.772955,88.2966351 L209.401781,82.2009578 L206.090707,82.2009578 C201.407902,82.2009578 191.521981,84.331967 184.284919,86.9090013 C183.85921,87.0576763 184.048414,86.4629761 184.710629,85.2735756 C192.231497,72.239729 194.501948,69.3157862 201.360601,63.9634842 C206.185309,60.1970494 208.786867,57.3722233 208.786867,55.9845895 C208.786867,53.7544636 205.097385,51.5738961 198.853645,50.2358206 L196.252087,49.6906787 L199.09015,48.1543698 C200.651085,47.3118778 204.00946,45.7260106 206.516416,44.5861685 C214.510295,41.0179671 218.388982,38.193141 220.139121,34.6249397 C220.659432,33.4850976 221.037841,31.2549717 221.227045,28.1823539 C221.558152,22.28491 223.119087,17.1308413 227.518086,7.26872924 L230.781859,0.0332098192 L231.160267,4.29522811 C231.633278,9.99443862 233.194213,17.9733333 237.167501,35.1205232 C243.647746,63.2201089 244.972176,72.239729 244.972176,88.3957518 C244.972176,100.636665 244.499165,104.551775 242.134112,113.174928 C236.316082,134.286786 219.571508,150.0959 194.927657,157.827003 C192.79911,158.471262 190.717863,159.165079 190.244853,159.313754 C189.67724,159.462429 189.913745,158.619937 191.285476,155.844669 Z" id="Path" fill="#3175FF" transform="translate(214.514892, 79.681656) scale(-1, 1) rotate(-180.000000) translate(-214.514892, -79.681656) "></path>
            <path d="M358.021703,162.295785 C350.500835,162.097552 343.216472,161.601968 340.283806,161.155943 C319.092933,157.736417 302.064552,144.504337 283.049527,116.652543 C281.204786,113.926834 278.130217,108.673648 276.238175,104.956772 C274.346132,101.190337 270.183639,93.6079091 267.014469,88.0573736 C261.149137,77.9474698 258.358375,72.1987009 256.277129,66.2021403 C254.952699,62.2374721 253.20256,55.6957696 253.439065,55.4479779 C253.533667,55.3488612 254.621592,55.8940031 255.89872,56.6869367 C257.175849,57.4798703 262.284363,60.2551381 267.203673,62.8817307 C277.231497,68.2835911 282.623817,72.1491426 285.509182,76.1633691 C286.549805,77.6501197 287.448525,78.8890785 287.495826,78.9386368 C287.590428,79.0377535 289.104062,78.54217 290.901503,77.8979114 C295.158598,76.3616025 302.206455,72.8925179 306.88926,69.9685751 C308.923205,68.6800579 310.720646,67.7384492 310.815248,67.8871243 C311.146355,68.1844744 307.740679,75.0730854 305.612131,78.2943783 C304.571508,79.9298039 302.253756,82.9528634 300.456316,85.0838725 L297.239844,88.949424 L299.226489,90.1883828 C306.652755,94.7477512 314.693934,96.6309686 329.120757,97.2256688 C338.297162,97.6221356 338.297162,97.6221356 329.120757,100.79387 C322.829716,103.023996 314.50473,104.956772 307.551475,105.848822 C304.997218,106.195731 302.915971,106.641756 302.915971,106.889547 C302.915971,107.533806 307.551475,111.002891 310.294936,112.440083 C313.842515,114.3233 319.84975,115.958726 331.107401,118.188852 C342.033945,120.369419 344.966611,121.013678 345.250417,121.311028 C345.392321,121.410145 345.108514,122.302195 344.635504,123.243804 C343.784085,125.027904 339.952699,127.753614 336.972732,128.695222 C333.425153,129.785506 328.127435,131.123582 326.046188,131.420932 C322.167501,131.966074 322.167501,132.263424 326.235392,136.327209 C331.911519,142.026419 337.020033,144.950362 352.345576,151.392948 C357.028381,153.375282 362.515303,155.853199 364.501948,156.893925 C367.954925,158.678026 373.394546,162.196669 373.394546,162.642694 C373.394546,162.74181 372.826934,162.791369 372.117418,162.74181 C371.360601,162.692252 365.06956,162.494019 358.021703,162.295785 Z" id="Path" fill="#83DDFF" transform="translate(313.405978, 109.098803) scale(-1, 1) rotate(-180.000000) translate(-313.405978, -109.098803) "></path>
            <path d="M97.392877,185.921421 C82.7295492,184.087762 68.6811352,179.62751 53.7813022,172.144199 C49.8080134,170.112307 46.5442404,168.377764 46.5442404,168.278648 C46.5442404,168.179531 48.1051753,167.683947 49.9972176,167.188364 C64.1402337,163.669721 93.7033945,155.789943 98.3388982,154.303192 C107.988314,151.230574 119.340568,146.869439 118.867557,146.423414 C118.772955,146.324298 114.232053,143.449913 108.839733,140.030387 L99.001113,133.835593 L103.163606,133.538243 C105.434057,133.389568 111.677796,132.993101 117.022816,132.745309 C129.415693,132.101051 132.679466,131.853259 138.781302,131.010767 C145.119644,130.118716 149.660545,128.731083 149.660545,127.739916 C149.660545,127.145215 144.173623,123.130989 139.443517,120.306163 C134.335003,117.233545 126.104619,113.268877 118.441848,110.196259 C115.178075,108.907742 112.008904,107.668783 111.39399,107.420991 C110.779076,107.173199 110.353367,106.875849 110.447969,106.727174 C110.96828,106.231591 127.94936,102.960739 134.051196,102.217364 C143.842515,101.077522 156.519199,101.473989 163.377852,103.158973 C166.121313,103.85279 169.148581,104.794398 170.141903,105.190865 C171.087924,105.63689 171.892042,105.785566 171.892042,105.587332 C171.892042,104.397932 167.918753,98.8969545 165.364496,96.567712 C163.75626,95.0809614 162.526433,93.8420026 162.573734,93.7428859 C162.715637,93.6437692 169.763495,95.1305198 176.858653,96.7659454 C180.73734,97.6579957 185.987757,97.7571124 188.636617,97.0137372 C190.434057,96.4685953 191.427379,95.6261033 193.603228,92.6030438 C196.062883,89.1835175 200.840289,87.2011834 212.334446,84.6737075 C216.260434,83.8312155 220.470228,82.8400484 221.747357,82.4435816 C223.024485,82.0471148 224.207012,81.7002063 224.348915,81.7002063 C224.869226,81.7002063 224.348915,90.8685015 223.639399,94.734053 C222.693378,100.036797 221.46355,102.712948 216.355036,110.741401 C196.299388,142.310071 175.297718,163.372371 151.789093,175.365492 C140.815248,181.015144 129.888703,184.484229 119.151363,185.772746 C115.225376,186.218771 100.609349,186.367446 97.392877,185.921421 Z" id="Path" fill="#6AFFD6" transform="translate(135.552085, 133.945468) scale(-1, 1) rotate(-180.000000) translate(-135.552085, -133.945468) "></path>
            <path d="M333.188648,222.401223 C322.829716,221.558731 311.335559,219.625955 297.003339,216.305546 C294.165275,215.611729 289.671675,214.818795 287.070117,214.521445 C279.218141,213.678953 271.791875,211.399269 254.716194,204.808008 L246.012799,201.388482 L248.094046,200.992015 C249.229271,200.793781 257.648859,200.446873 266.730662,200.199081 C285.083472,199.753056 285.698386,199.653939 286.833612,196.581321 C288.820256,191.377694 292.367835,185.282017 293.45576,185.282017 C293.644964,185.282017 293.976071,186.025392 294.117974,186.967001 C294.543684,189.246685 296.388425,191.229019 298.043962,191.229019 C301.355036,191.179461 305.328325,188.255518 315.971063,178.096056 C322.214802,172.049937 329.26266,165.95426 329.972176,165.95426 C330.114079,165.95426 330.492487,168.977319 330.776294,172.694196 C331.722315,183.299683 332.952142,186.273184 336.594324,186.273184 C340.094602,186.273184 345.959933,182.308516 358.494713,171.455237 L363.69783,166.945427 L364.785754,168.828644 C366.819699,172.347287 367.481914,175.618138 367.481914,182.457191 C367.481914,185.926276 367.481914,188.751102 367.529215,188.751102 C367.576516,188.751102 369.610462,187.759935 372.117418,186.570534 C383.611575,180.97044 392.929883,177.650031 402.815804,175.618138 C413.553144,173.437571 417.999444,172.347287 421.121313,171.108328 C422.77685,170.46407 424.290484,169.918928 424.526989,169.918928 C425.283806,169.918928 425,175.122555 424.006678,179.136781 C419.087368,199.604381 397.328881,215.85952 367.954925,220.914472 C356.933779,222.847248 345.392321,223.342832 333.188648,222.401223 Z" id="Path" fill="#42BDFF" transform="translate(335.485043, 194.409085) scale(-1, 1) rotate(-180.000000) translate(-335.485043, -194.409085) "></path>
            <path d="M82.9660545,260.856069 C82.0673344,260.756952 79.2765721,260.410043 76.8169171,260.162252 C62.2481914,258.477268 48.3416806,253.719666 38.2665554,246.880613 C22.2314969,236.076893 12.2982749,220.466012 1.08792432,188.649549 C-0.283806344,184.783998 -0.283806344,184.73444 0.756816917,185.428257 C17.5013912,196.826678 39.590985,209.414499 53.8759043,215.70841 C60.1196439,218.434119 71.6138008,222.646579 71.8976071,222.349229 C71.9922092,222.250112 70.998887,215.064151 69.7217585,206.39144 C68.3973289,197.718728 67.4513077,190.532767 67.5459098,190.384092 C67.687813,190.284975 69.9582638,192.168192 72.654424,194.596552 C85.6622148,206.39144 98.4335003,217.145602 104.346132,221.308504 C107.79911,223.736863 108.508625,224.034213 110.06956,223.83598 C111.062883,223.687304 112.387312,223.241279 113.002226,222.795254 C115.083472,221.358062 114.98887,219.970428 112.387312,214.172101 C111.062883,211.248158 109.218141,206.787906 108.319421,204.26043 C106.616583,199.651504 100.420145,178.886554 100.751252,178.886554 C100.940456,178.886554 121.942126,194.100968 125.205899,196.628444 C133.861992,203.36838 139.774624,209.563174 142.70729,214.965034 C144.268225,217.888977 144.835838,218.285444 146.633278,217.839419 C148.667223,217.294277 149.802449,213.775634 149.802449,208.026865 L149.84975,203.219705 L151.599889,204.706456 C154.012243,206.68879 156.992209,210.950808 160.728993,217.690744 L163.850863,223.340396 L166.121313,222.943929 C169.905398,222.299671 178.703395,222.448346 182.771285,223.290838 C192.231497,225.174055 204.056761,231.220174 212.097941,238.307018 L213.706177,239.744211 L211.62493,239.992002 C210.442404,240.140677 207.462437,240.537144 205.002782,240.784936 C199.279354,241.429195 195.779076,242.420362 191.048971,244.650487 C186.413467,246.781497 183.528102,247.673547 173.12187,250.201023 C154.059544,254.80995 137.456873,257.833009 119.624374,259.964018 C113.380634,260.657835 86.8920423,261.351652 82.9660545,260.856069 Z" id="Path" fill="#42BDFF" transform="translate(106.859820, 219.955198) scale(-1, 1) rotate(-180.000000) translate(-106.859820, -219.955198) "></path>
            <path d="M235.511964,632.699809 C232.531998,630.172333 220.99054,622.193438 198.144129,606.979024 C173.59488,590.624768 163.377852,583.587482 152.498609,575.608587 C100.798553,537.597331 68.5865331,500.676358 51.983862,460.385418 C50.0445186,455.677375 49.2877017,454.289741 48.4835838,454.190624 C47.5848637,454.041949 47.4902615,453.695041 47.4902615,451.167565 C47.4902615,449.532139 47.064552,447.004663 46.4969393,445.369237 C45.2671119,441.652361 43.0912632,433.128324 42.1452421,428.321164 C33.5364496,385.304514 40.8681135,339.909064 64.5186422,289.80557 C70.4785754,277.16819 76.0601002,266.562703 82.0673344,256.502357 C84.0066778,253.281064 93.6560935,240.594126 108.981636,221.117694 C122.13133,204.416529 133.105175,190.441073 133.341681,190.094165 C133.76739,189.499465 140.578742,189.499465 178.277685,190.193282 C248.567056,191.382682 276.569282,191.927824 276.758486,192.126057 C276.853088,192.175616 272.170284,194.603975 266.399555,197.47836 C179.41291,240.445451 180.548136,239.900309 172.743461,245.302169 C146.30217,263.589201 124.117974,284.651501 108.839733,305.961593 C96.8725654,322.712316 87.506956,342.634773 83.4863662,359.831521 C75.2086811,395.315302 80.2698943,429.560123 99.7579299,469.95018 C108.319421,487.69207 118.158041,503.055159 130.929327,518.814715 C138.6867,528.379477 158.695047,549.094869 177.095159,566.588967 C196.110184,584.727324 213.185865,602.419656 221.700056,612.876468 C228.132999,620.756246 237.924318,633.988326 237.309405,633.988326 C237.1202,633.938768 236.316082,633.393626 235.511964,632.699809 Z" id="Path" stroke="#6AFFD6" stroke-width="5" fill="#3175FF" transform="translate(157.712804, 411.824070) scale(-1, 1) rotate(-180.000000) translate(-157.712804, -411.824070) "></path>
            <path d="M239.201447,411.054838 C242.607123,401.440517 249.796884,373.192256 250.269894,367.493046 C250.742905,361.694719 248.330551,353.319357 243.505843,343.90327 C242.370618,341.623586 241.471898,339.789927 241.5665,339.789927 C241.661102,339.789927 244.357262,341.227119 247.526433,343.01122 C250.742905,344.795321 253.486366,346.182955 253.580968,346.034279 C253.722871,345.885604 252.114636,332.802199 249.986088,316.943527 C247.85754,301.084854 246.202003,288.001449 246.343907,287.902332 C246.627713,287.604982 249.891486,289.934225 252.77685,292.461701 C258.500278,297.417536 265.595437,307.428323 270.987757,318.132927 C272.45409,321.05687 273.77852,323.435671 273.873122,323.435671 C274.913745,323.435671 276.947691,321.65157 277.657206,320.115261 C278.981636,317.339994 278.887034,304.851289 277.420701,295.435202 C276.048971,286.46514 274.109627,271.696751 274.298831,271.498518 C274.629939,271.151609 279.407346,273.431293 281.914302,275.165836 C283.427935,276.206561 287.164719,279.626087 290.191987,282.649147 C293.219254,285.721765 295.820812,288.249241 295.962716,288.249241 C296.577629,288.249241 296.814135,283.788989 296.293823,280.815488 C296.010017,279.031387 294.543684,272.687918 292.982749,266.691358 C289.90818,254.747795 288.53645,248.156534 288.016138,243.002465 C287.685031,239.880289 287.732332,239.682056 288.53645,239.979406 C290.097385,240.574106 292.178631,242.25909 296.766834,246.620225 C304.051196,253.558394 305.943239,254.747795 307.36227,253.310602 C308.544797,252.022085 308.308292,244.340541 306.700056,231.405811 C305.281024,220.552532 304.382304,209.947044 304.949917,210.442628 C305.375626,210.888653 317.153589,227.837609 320.937674,233.487262 C336.830829,257.324829 340.283806,274.818927 333.614357,297.814003 C327.417919,319.074536 321.930996,328.738415 305.848637,346.33163 C302.301057,350.296298 296.293823,356.937117 292.55704,361.149577 C279.880356,375.273707 265.926544,388.803137 249.229271,402.976826 C246.391208,405.405185 242.890929,408.378687 241.471898,409.667204 C240.052866,410.906163 239.012243,411.500863 239.201447,411.054838 Z" id="Path" fill="#6AFFD6" transform="translate(288.005415, 310.814138) scale(-1, 1) rotate(-180.000000) translate(-288.005415, -310.814138) "></path>
            <text id="hi" stroke="#42BDFF" stroke-width="3" font-family="Facit-Regular, Facit" font-size="200" font-weight="normal" fill="#6AFFD6">
                <tspan x="124" y="505">hi</tspan>
            </text>
            <g id="312154" transform="translate(203.000000, 411.000000)"></g>
        </g>
    </g>
</svg>